<?xml version="1.0" encoding="utf-8"?>
<!-- Generator: Adobe Illustrator 16.0.0, SVG Export Plug-In . SVG Version: 6.00 Build 0)  -->
<!DOCTYPE svg PUBLIC "-//W3C//DTD SVG 1.1//EN" "http://www.w3.org/Graphics/SVG/1.1/DTD/svg11.dtd">
<svg version="1.1" id="Layer_1" xmlns="http://www.w3.org/2000/svg" xmlns:xlink="http://www.w3.org/1999/xlink" x="0px" y="0px"
	 width="1400px" height="980px" viewBox="0 0 1400 980" enable-background="new 0 0 1400 980" xml:space="preserve">
<g>
	<g>
		<g>
			<rect fill="#414042" width="1400" height="980"/>
		</g>
	</g>
	<g>
		<path fill="#FFFFFF" d="M745,174.7H474.3c-0.7,0-1.4-0.3-1.9-0.8c-0.5-0.5-0.7-1.2-0.6-2c2.3-19.7,18.9-34.5,38.6-34.5h48.4
			c-0.3-2.5-0.4-4.9-0.4-7.1c0-37.8,30.7-68.5,68.5-68.5c32.6,0,60.4,22.7,67,54.4c1.1-0.1,2.2-0.1,3.3-0.1
			c27.9,0,50.7,22.7,50.7,50.7c0,1.9-0.1,3.8-0.3,5.7C747.3,173.7,746.2,174.7,745,174.7z M477.3,169.7h265.4c0.1-1,0.1-2,0.1-2.9
			c0-25.2-20.5-45.6-45.6-45.6c-1.7,0-3.4,0.1-5.1,0.3c-1.3,0.2-2.5-0.7-2.8-2.1c-5.3-30.4-31.6-52.5-62.5-52.5
			c-35,0-63.5,28.5-63.5,63.5c0,2.8,0.2,5.8,0.7,9.3c0.1,0.7-0.1,1.5-0.6,2c-0.5,0.6-1.2,0.9-1.9,0.9h-51.2
			C494.2,142.4,480.4,153.9,477.3,169.7z"/>
	</g>
	<g>
		<path fill="#FFFFFF" d="M607.8,505.2c-0.4,0-0.7-0.1-1-0.2c-1-0.5-1.6-1.6-1.4-2.7l12.5-67.9h-37.7c-1,0-1.9-0.6-2.3-1.4
			c-0.4-0.9-0.3-1.9,0.3-2.7l85.2-102.3c0.7-0.9,2-1.2,3.1-0.6c1,0.5,1.6,1.7,1.3,2.9l-17.5,66.2h40.3c1,0,1.8,0.6,2.3,1.4
			c0.4,0.9,0.3,1.9-0.3,2.6l-82.7,103.8C609.2,504.9,608.5,505.2,607.8,505.2z M585.4,429.3h35.4c0.7,0,1.4,0.3,1.9,0.9
			c0.5,0.6,0.7,1.3,0.5,2.1l-11.2,61l73.2-91.9h-38.3c-0.8,0-1.5-0.4-2-1c-0.5-0.6-0.6-1.4-0.4-2.2l15.5-58.4L585.4,429.3z"/>
	</g>
	<g>
		<path fill="#FFFFFF" d="M592.6,306c-0.4,0-0.7-0.1-1-0.2c-1-0.5-1.6-1.6-1.4-2.7l7.6-41.3h-22.4c-1,0-1.9-0.6-2.3-1.4
			c-0.4-0.9-0.3-1.9,0.3-2.7l53.1-63.8c0.7-0.9,2-1.2,3.1-0.6c1,0.5,1.6,1.7,1.3,2.9l-10.6,40.1h23.9c1,0,1.8,0.6,2.3,1.4
			c0.4,0.9,0.3,1.9-0.3,2.6L594.6,305C594.1,305.7,593.4,306,592.6,306z M580.7,256.8h20.1c0.7,0,1.4,0.3,1.9,0.9
			c0.5,0.6,0.7,1.3,0.5,2.1l-6.3,34.4l42.1-52.9h-22c-0.8,0-1.5-0.4-2-1s-0.6-1.4-0.4-2.2l8.5-32.3L580.7,256.8z"/>
	</g>
	<g>
		<path fill="#FFFFFF" d="M825.2,443c-0.4,0-0.7-0.1-1-0.2c-1-0.5-1.6-1.6-1.4-2.7l7.9-42.7h-23.2c-0.8,0-1.5-0.4-2-1
			c-0.5-0.6-0.6-1.4-0.4-2.2l22.2-82.6H698.4c-1.3,0-2.3-1-2.5-2.2c-0.2-1.8-0.3-3.5-0.3-5.4c0-25.5,20-46.7,45.1-48.6
			c-0.7-4.6-1.1-9.1-1.1-13.5c0-48,39.1-87.1,87.1-87.1c28.1,0,54.4,13.5,70.8,36.3c7-3.9,14.9-5.9,22.8-5.9
			c26.2,0,47.5,21.2,47.6,47.4h0.9c33.1,0,60,26.9,60,60c0,5.7-0.8,11.5-2.5,17.1c-0.3,1.1-1.3,1.8-2.4,1.8H875.4L854,371.1h24.5
			c1,0,1.8,0.6,2.3,1.4c0.4,0.9,0.3,1.9-0.3,2.6L827.2,442C826.7,442.6,825.9,443,825.2,443z M810.6,392.3h23c0.7,0,1.4,0.3,1.9,0.9
			c0.5,0.6,0.7,1.3,0.5,2.1l-6.6,35.8l43.8-55h-22.8c-0.8,0-1.6-0.4-2.1-1.1c-0.5-0.7-0.6-1.5-0.3-2.3l23.2-64.5
			c0.4-1,1.3-1.7,2.4-1.7H1022c1.2-4.6,1.8-9.2,1.8-13.8c0-30.3-24.7-55-55-55h-3.5c-0.7,0-1.3-0.3-1.8-0.8
			c-0.5-0.5-0.7-1.2-0.7-1.9l0-0.8c0-0.5,0.1-0.9,0.1-1.4c0-23.5-19.1-42.6-42.6-42.6c-7.8,0-15.5,2.2-22.3,6.3
			c-1.1,0.7-2.6,0.4-3.4-0.7c-15.3-22.6-40.7-36.1-68-36.1c-45.3,0-82.1,36.8-82.1,82.1c0,5,0.5,10.1,1.5,15.4
			c0.1,0.7-0.1,1.5-0.5,2.1c-0.5,0.6-1.2,0.9-1.9,0.9c-23.7,0.4-43.1,20-43.1,43.7c0,0.9,0,1.7,0.1,2.6h129.8c0.8,0,1.5,0.4,2,1
			c0.5,0.6,0.6,1.4,0.4,2.2L810.6,392.3z"/>
	</g>
	<g>
		<polygon fill="#414042" points="848.4,269 861.4,198.1 820.7,198.1 905.9,95.8 887.6,165.2 931.1,165.2 		"/>
		<path fill="#FFFFFF" d="M848.4,271.5c-0.4,0-0.7-0.1-1-0.2c-1-0.5-1.6-1.6-1.4-2.7l12.5-67.9h-37.7c-1,0-1.9-0.6-2.3-1.4
			c-0.4-0.9-0.3-1.9,0.3-2.7L904,94.2c0.8-0.9,2-1.2,3.1-0.6c1,0.5,1.6,1.7,1.3,2.9l-17.5,66.2h40.3c1,0,1.8,0.6,2.3,1.4
			c0.4,0.9,0.3,1.9-0.3,2.6l-82.7,103.8C849.9,271.2,849.1,271.5,848.4,271.5z M826.1,195.6h35.4c0.7,0,1.4,0.3,1.9,0.9
			c0.5,0.6,0.7,1.3,0.5,2.1l-11.2,61l73.2-91.9h-38.3c-0.8,0-1.5-0.4-2-1c-0.5-0.6-0.6-1.4-0.4-2.2l15.5-58.4L826.1,195.6z"/>
	</g>
	<g>
		<path fill="#FFFFFF" d="M1189,524.6c-54.5,0-98.8-44.3-98.8-98.8c0-54.5,44.3-98.8,98.8-98.8c54.5,0,98.8,44.3,98.8,98.8
			C1287.8,480.3,1243.5,524.6,1189,524.6z M1189,332c-51.7,0-93.8,42.1-93.8,93.8c0,51.7,42.1,93.8,93.8,93.8
			c51.7,0,93.8-42.1,93.8-93.8C1282.8,374.1,1240.7,332,1189,332z"/>
	</g>
	<g>
		<path fill="#FFFFFF" d="M1144.8,393c-8.9,0-16.1-7.2-16.1-16.1c0-8.9,7.2-16.1,16.1-16.1s16.1,7.2,16.1,16.1
			C1160.9,385.8,1153.7,393,1144.8,393z M1144.8,365.8c-6.1,0-11.1,5-11.1,11.1c0,6.1,5,11.1,11.1,11.1c6.1,0,11.1-5,11.1-11.1
			C1155.9,370.8,1150.9,365.8,1144.8,365.8z"/>
	</g>
	<g>
		<path fill="#FFFFFF" d="M1219.6,450.8l-0.3,1.4c-1.3,5.6-4.1,10.2-8.2,13.7c-5.3,4.6-12.3,6.9-20.9,6.9c-10.7,0-18.6-4.3-24-13.1
			c-4.6-7.3-6.9-16.8-6.9-28.3c0-11.4,2.4-21,7.1-28.6c5.6-8.9,13.6-13.2,24.4-13.2c14.6,0,23.6,5.7,27.5,17.5l0.4,1.2l5.8-3
			l-0.3-0.9c-1.9-5.2-5.1-9.6-9.6-13.2c-6.3-5-14-7.5-23-7.5c-13.2,0-23.3,4.9-30,14.6c-5.8,8.5-8.7,19.6-8.7,33.1
			c0,13.5,2.8,24.5,8.5,32.6c6.6,9.6,16.5,14.4,29.5,14.4c10.1,0,18.4-2.8,24.7-8.3c4.7-4.2,7.9-9.4,9.5-15.6l0.2-0.8L1219.6,450.8z
			"/>
	</g>
	<g>
		<path fill="#FFFFFF" d="M1181.2,281.5c-54.5,0-98.8-44.3-98.8-98.8c0-54.5,44.3-98.8,98.8-98.8c54.5,0,98.8,44.3,98.8,98.8
			C1280,237.1,1235.7,281.5,1181.2,281.5z M1181.2,88.9c-51.7,0-93.8,42.1-93.8,93.8c0,51.7,42.1,93.8,93.8,93.8
			c51.7,0,93.8-42.1,93.8-93.8C1275,130.9,1232.9,88.9,1181.2,88.9z"/>
	</g>
	<g>
		<path fill="#FFFFFF" d="M1137,149.8c-8.9,0-16.1-7.2-16.1-16.1s7.2-16.1,16.1-16.1s16.1,7.2,16.1,16.1S1145.9,149.8,1137,149.8z
			 M1137,122.6c-6.1,0-11.1,5-11.1,11.1c0,6.1,5,11.1,11.1,11.1c6.1,0,11.1-5,11.1-11.1C1148.1,127.6,1143.1,122.6,1137,122.6z"/>
	</g>
	<g>
		<polygon fill="#FFFFFF" points="1219.8,147.3 1219.8,140.6 1158.2,140.6 1158.2,244.5 1165.2,244.5 1165.2,193.7 1208.6,193.7 
			1208.6,187.1 1165.2,187.1 1165.2,147.3 		"/>
	</g>
	<g>
		<g>
			<path fill="#FFFFFF" d="M1256.2,893c-33.9,0-61.4-27.5-61.4-61.4c0-20.7,10.3-39.7,27.6-51.2v-143c0-18.7,15.2-33.8,33.8-33.8
				c18.7,0,33.8,15.2,33.8,33.8v143c17.3,11.4,27.6,30.5,27.6,51.2C1317.6,865.4,1290,893,1256.2,893z M1256.2,608.6
				c-15.9,0-28.8,12.9-28.8,28.8v144.4c0,0.9-0.4,1.7-1.2,2.1c-16.5,10.4-26.4,28.2-26.4,47.7c0,31.1,25.3,56.4,56.4,56.4
				s56.4-25.3,56.4-56.4c0-19.4-9.9-37.3-26.4-47.7c-0.7-0.5-1.2-1.3-1.2-2.1V637.4C1285,621.5,1272.1,608.6,1256.2,608.6z"/>
		</g>
		<g>
			<g>
				<path fill="#FFFFFF" d="M1087.7,893c-33.9,0-61.4-27.5-61.4-61.4c0-20.7,10.3-39.7,27.6-51.2v-143c0-18.7,15.2-33.8,33.8-33.8
					s33.8,15.2,33.8,33.8v143c17.3,11.4,27.6,30.5,27.6,51.2C1149.1,865.4,1121.5,893,1087.7,893z M1087.7,608.6
					c-15.9,0-28.8,12.9-28.8,28.8v144.4c0,0.9-0.4,1.7-1.2,2.1c-16.5,10.4-26.4,28.2-26.4,47.7c0,31.1,25.3,56.4,56.4,56.4
					c31.1,0,56.4-25.3,56.4-56.4c0-19.4-9.9-37.3-26.4-47.7c-0.7-0.5-1.2-1.3-1.2-2.1V637.4C1116.5,621.5,1103.5,608.6,1087.7,608.6
					z"/>
			</g>
			<g>
				<path fill="#FFFFFF" d="M1087.7,877.9c-25.6,0-46.4-20.8-46.4-46.4c0-16,8.1-30.6,21.7-39.2l5.8-3.7V637.4
					c0-10.4,8.4-18.8,18.8-18.8s18.8,8.4,18.8,18.8v151.3l5.8,3.7c13.6,8.6,21.7,23.2,21.7,39.2
					C1134,857.1,1113.2,877.9,1087.7,877.9z M1087.7,623.6c-7.6,0-13.8,6.2-13.8,13.8v152.7c0,0.9-0.4,1.7-1.2,2.1l-7,4.4
					c-12.1,7.7-19.4,20.7-19.4,35c0,22.8,18.5,41.3,41.3,41.3s41.3-18.5,41.3-41.3c0-14.2-7.2-27.3-19.4-35l-7-4.4
					c-0.7-0.5-1.2-1.3-1.2-2.1V637.4C1101.4,629.8,1095.3,623.6,1087.7,623.6z"/>
			</g>
			<g>
				<path fill="#FFFFFF" d="M1256.2,877.9c-25.6,0-46.4-20.8-46.4-46.4c0-16,8.1-30.6,21.7-39.2l5.8-3.7v-67.4
					c0-10.4,8.4-18.8,18.8-18.8s18.8,8.4,18.8,18.8v67.4l5.8,3.7c13.6,8.6,21.7,23.2,21.7,39.2
					C1302.5,857.1,1281.7,877.9,1256.2,877.9z M1256.2,707.5c-7.6,0-13.8,6.2-13.8,13.8v68.8c0,0.9-0.4,1.7-1.2,2.1l-7,4.4
					c-12.1,7.7-19.4,20.7-19.4,35c0,22.8,18.5,41.3,41.3,41.3c22.8,0,41.3-18.5,41.3-41.3c0-14.2-7.2-27.3-19.4-35l-7-4.4
					c-0.7-0.5-1.2-1.3-1.2-2.1v-68.8C1270,713.7,1263.8,707.5,1256.2,707.5z"/>
			</g>
			<g>
				<path fill="#FFFFFF" d="M1028.8,760.2h-46.4c-1.4,0-2.5-1.1-2.5-2.5s1.1-2.5,2.5-2.5h46.4c1.4,0,2.5,1.1,2.5,2.5
					S1030.2,760.2,1028.8,760.2z"/>
			</g>
			<g>
				<path fill="#FFFFFF" d="M1028.8,715.7h-24.4c-1.4,0-2.5-1.1-2.5-2.5c0-1.4,1.1-2.5,2.5-2.5h24.4c1.4,0,2.5,1.1,2.5,2.5
					C1031.3,714.6,1030.2,715.7,1028.8,715.7z"/>
			</g>
			<g>
				<path fill="#FFFFFF" d="M1028.8,672.9h-46.4c-1.4,0-2.5-1.1-2.5-2.5s1.1-2.5,2.5-2.5h46.4c1.4,0,2.5,1.1,2.5,2.5
					S1030.2,672.9,1028.8,672.9z"/>
			</g>
			<g>
				<path fill="#FFFFFF" d="M1028.8,628.4h-24.4c-1.4,0-2.5-1.1-2.5-2.5s1.1-2.5,2.5-2.5h24.4c1.4,0,2.5,1.1,2.5,2.5
					S1030.2,628.4,1028.8,628.4z"/>
			</g>
			<g>
				<path fill="#FFFFFF" d="M1197.3,760.2h-46.4c-1.4,0-2.5-1.1-2.5-2.5s1.1-2.5,2.5-2.5h46.4c1.4,0,2.5,1.1,2.5,2.5
					S1198.7,760.2,1197.3,760.2z"/>
			</g>
			<g>
				<path fill="#FFFFFF" d="M1197.3,715.7h-24.4c-1.4,0-2.5-1.1-2.5-2.5c0-1.4,1.1-2.5,2.5-2.5h24.4c1.4,0,2.5,1.1,2.5,2.5
					C1199.8,714.6,1198.7,715.7,1197.3,715.7z"/>
			</g>
			<g>
				<path fill="#FFFFFF" d="M1197.3,672.9h-46.4c-1.4,0-2.5-1.1-2.5-2.5s1.1-2.5,2.5-2.5h46.4c1.4,0,2.5,1.1,2.5,2.5
					S1198.7,672.9,1197.3,672.9z"/>
			</g>
			<g>
				<path fill="#FFFFFF" d="M1197.3,628.4h-24.4c-1.4,0-2.5-1.1-2.5-2.5s1.1-2.5,2.5-2.5h24.4c1.4,0,2.5,1.1,2.5,2.5
					S1198.7,628.4,1197.3,628.4z"/>
			</g>
		</g>
	</g>
	<g>
		<g>
			<path fill="#FFFFFF" d="M258.9,360.8c-29.3,0-56.7-11.6-77.2-32.7c-19.5-20.1-30.2-46.7-30.2-74.6c0-59.2,48.2-107.4,107.4-107.4
				c9.9,0,19.8,1.4,29.4,4.1c45.9,13.1,77.9,55.5,77.9,103.3C366.2,312.6,318.1,360.8,258.9,360.8z M258.9,151
				c-56.5,0-102.4,45.9-102.4,102.4c0,26.7,10.2,51.9,28.8,71.1c19.5,20.1,45.6,31.2,73.6,31.2c56.4,0,102.4-45.9,102.4-102.3
				c0-45.5-30.5-86-74.3-98.5C277.8,152.3,268.3,151,258.9,151z"/>
		</g>
		<g>
			<path fill="#FFFFFF" d="M201.6,426.5c-0.3,0-0.5,0-0.8-0.1c-1-0.4-1.7-1.3-1.7-2.4l1.2-65.1c0-1.4,1.2-2.3,2.5-2.5
				c1.4,0,2.5,1.2,2.5,2.6l-1,57.3l34.5-46.2c0.8-1.1,2.4-1.3,3.5-0.5c1.1,0.8,1.3,2.4,0.5,3.5l-39.2,52.4
				C203.1,426.1,202.3,426.5,201.6,426.5z"/>
		</g>
		<g>
			<path fill="#FFFFFF" d="M348.9,177.3c-0.3,0-0.6-0.1-0.9-0.2c-1.3-0.5-1.9-1.9-1.4-3.2l19.7-51.2l-45.4,29.7
				c-1.2,0.7-2.7,0.4-3.5-0.7c-0.8-1.2-0.4-2.7,0.7-3.5l51.9-34c0.9-0.6,2.1-0.5,3,0.1c0.8,0.7,1.2,1.8,0.8,2.9l-22.5,58.4
				C350.9,176.7,349.9,177.3,348.9,177.3z"/>
		</g>
		<g>
			<path fill="#FFFFFF" d="M106.6,349.9c-0.9,0-1.7-0.4-2.1-1.2c-0.6-0.9-0.5-2.1,0.3-2.9l41.9-48.1c0.9-1,2.5-1.2,3.5-0.2
				c1,0.9,1.2,2.5,0.2,3.5l-36.8,42.3l55.2-13c1.4-0.3,2.7,0.5,3,1.9c0.3,1.3-0.5,2.7-1.9,3l-62.8,14.8
				C107,349.9,106.8,349.9,106.6,349.9z"/>
		</g>
		<g>
			<path fill="#FFFFFF" d="M323.6,424.1c-0.7,0-1.5-0.3-1.9-0.9l-41.3-51c-0.9-1.1-0.7-2.7,0.4-3.5c1.1-0.9,2.7-0.7,3.5,0.4l36.4,45
				l-3.2-57.7c-0.1-1.4,1-2.6,2.4-2.6c1.6-0.1,2.6,1,2.6,2.4l3.7,65.5c0.1,1.1-0.6,2.1-1.6,2.5C324.2,424.1,323.9,424.1,323.6,424.1
				z"/>
		</g>
		<g>
			<path fill="#FFFFFF" d="M139.4,258.5c-0.4,0-0.8-0.1-1.1-0.3L82,229.9c-1-0.5-1.5-1.6-1.3-2.6c0.2-1.1,1-1.9,2.1-2.1l61.6-9.7
				c1.3-0.2,2.6,0.7,2.9,2.1c0.2,1.4-0.7,2.7-2.1,2.9l-53.9,8.5l46,23.2c0.4-0.7,1.2-1.2,2.1-1.2c1.4,0,2.5,1.1,2.5,2.5
				c0,0.5,0,1,0,1.5l0,1c0,0.9-0.4,1.7-1.2,2.2C140.4,258.4,139.9,258.5,139.4,258.5z"/>
		</g>
		<g>
			<path fill="#FFFFFF" d="M378.4,254.4c-0.9,0-1.7-0.5-2.2-1.3c-0.7-1.2-0.2-2.7,1-3.4l49.2-27.3l-55.2-6.5
				c-1.4-0.2-2.4-1.4-2.2-2.8c0.2-1.4,1.4-2.4,2.8-2.2l62.9,7.5c1.1,0.1,2,0.9,2.2,2c0.2,1.1-0.3,2.1-1.2,2.7l-56,31
				C379.2,254.3,378.8,254.4,378.4,254.4z"/>
		</g>
		<g>
			<path fill="#FFFFFF" d="M415.5,343.9c-0.2,0-0.3,0-0.5,0l-64-12.5c-1.4-0.3-2.2-1.6-2-2.9c0.3-1.4,1.6-2.2,2.9-2l56.4,11
				l-39-41.5c-0.9-1-0.9-2.6,0.1-3.5c1-0.9,2.6-0.9,3.5,0.1l44.3,47.1c0.7,0.8,0.9,2,0.4,2.9C417.3,343.4,416.4,343.9,415.5,343.9z"
				/>
		</g>
		<g>
			<path fill="#FFFFFF" d="M238.2,138.2c-0.2,0-0.5,0-0.7-0.1c-1.3-0.4-2.1-1.8-1.7-3.1l17.7-58.8c0.3-1,1.3-1.8,2.3-1.8
				c1.1,0,2.1,0.7,2.4,1.7l20,58.2c0.4,1.3-0.2,2.7-1.6,3.2c-1.3,0.5-2.7-0.3-3.2-1.6L256.1,85l-15.5,51.4
				C240.3,137.5,239.3,138.2,238.2,138.2z"/>
		</g>
		<g>
			<path fill="#FFFFFF" d="M166.5,180.1c-1,0-1.9-0.6-2.3-1.5l-24.4-56.8c-0.4-1-0.2-2.2,0.7-2.9c0.8-0.7,2-0.8,2.9-0.3l52.7,31.7
				c1.2,0.7,1.6,2.3,0.9,3.4c-0.7,1.2-2.3,1.6-3.4,0.9L147.5,127l21.3,49.7c0.5,1.3,0,2.7-1.3,3.3
				C167.1,180.1,166.8,180.1,166.5,180.1z"/>
		</g>
	</g>
	<g>
		<g>
			<path fill="#FFFFFF" d="M878.5,859.8c-0.1,0-0.2,0-0.3,0c-1.4-0.2-2.3-1.4-2.1-2.8c1.2-8.8,1.8-17.5,1.8-25.9
				c0-105-85.4-190.4-190.4-190.4C582.4,640.6,497,726,497,831c0,8.4,0.6,17.1,1.8,25.9c0.2,1.4-0.8,2.6-2.1,2.8
				c-1.4,0.2-2.6-0.8-2.8-2.1c-1.2-9-1.9-18-1.9-26.6c0-107.7,87.7-195.4,195.4-195.4c107.7,0,195.4,87.7,195.4,195.4
				c0,8.6-0.6,17.6-1.9,26.6C880.8,858.8,879.7,859.8,878.5,859.8z"/>
		</g>
		<g>
			<path fill="#FFFFFF" d="M529.5,859.8c-1.2,0-2.3-0.9-2.5-2.1c-1.5-8.9-2.2-17.8-2.2-26.7c0-89.6,72.9-162.6,162.6-162.6
				c89.6,0,162.6,72.9,162.6,162.6c0,8.8-0.7,17.7-2.2,26.7c-0.2,1.4-1.5,2.3-2.9,2.1c-1.4-0.2-2.3-1.5-2.1-2.9
				c1.4-8.7,2.1-17.4,2.1-25.9c0-86.9-70.7-157.6-157.6-157.6c-86.9,0-157.6,70.7-157.6,157.6c0,8.6,0.7,17.3,2.1,25.9
				c0.2,1.4-0.7,2.7-2.1,2.9C529.8,859.7,529.7,859.8,529.5,859.8z"/>
		</g>
		<g>
			<path fill="#FFFFFF" d="M812,859.8c-0.2,0-0.3,0-0.5-0.1c-1.4-0.3-2.2-1.6-1.9-3c1.8-8.4,2.7-17.1,2.7-25.7
				c0-68.8-56-124.8-124.8-124.8c-68.8,0-124.8,56-124.8,124.8c0,8.6,0.9,17.3,2.7,25.7c0.3,1.4-0.6,2.7-1.9,3
				c-1.3,0.3-2.7-0.6-3-1.9c-1.9-8.8-2.8-17.8-2.8-26.8c0-71.6,58.2-129.8,129.8-129.8c71.6,0,129.8,58.2,129.8,129.8
				c0,9-0.9,18-2.8,26.8C814.2,858.9,813.2,859.8,812,859.8z"/>
		</g>
		<g>
			<path fill="#414042" d="M628.2,877.2c1.5-3.6,2.4-7.5,2.4-11.6c0-16.3-13.2-29.6-29.6-29.6h-4.2c0-28.3-23-51.3-51.3-51.3
				c-28.3,0-51.3,23-51.3,51.3h-21.4c-16.3,0-29.6,13.2-29.6,29.6c0,4.1,0.9,8.1,2.4,11.6H628.2z"/>
			<path fill="#FFFFFF" d="M628.2,879.7H445.7c-1,0-1.9-0.6-2.3-1.5c-1.7-4-2.6-8.3-2.6-12.6c0-17.7,14.4-32.1,32.1-32.1h19
				c1.3-28.5,24.9-51.3,53.7-51.3c28.8,0,52.4,22.8,53.8,51.3h1.7c17.7,0,32.1,14.4,32.1,32.1c0,4.4-0.9,8.6-2.6,12.6
				C630.1,879.1,629.2,879.7,628.2,879.7z M447.4,874.7h179.1c1.1-2.9,1.6-6,1.6-9.1c0-14.9-12.1-27.1-27.1-27.1h-4.2
				c-1.4,0-2.5-1.1-2.5-2.5c0-26.9-21.9-48.8-48.8-48.8c-26.9,0-48.8,21.9-48.8,48.8c0,1.4-1.1,2.5-2.5,2.5h-21.4
				c-14.9,0-27.1,12.1-27.1,27.1C445.8,868.7,446.4,871.8,447.4,874.7z"/>
		</g>
		<g>
			<path fill="#414042" d="M930.4,877.2c1.5-3.6,2.4-7.5,2.4-11.6c0-16.3-13.2-29.6-29.6-29.6H899c0-28.3-23-51.3-51.3-51.3
				s-51.3,23-51.3,51.3H775c-16.3,0-29.6,13.2-29.6,29.6c0,4.1,0.9,8.1,2.4,11.6H930.4z"/>
			<path fill="#FFFFFF" d="M930.4,879.7H747.9c-1,0-1.9-0.6-2.3-1.5c-1.7-4-2.6-8.3-2.6-12.6c0-17.7,14.4-32.1,32.1-32.1h19
				c1.3-28.5,24.9-51.3,53.7-51.3c28.8,0,52.4,22.8,53.7,51.3h1.7c17.7,0,32.1,14.4,32.1,32.1c0,4.4-0.9,8.6-2.6,12.6
				C932.3,879.1,931.4,879.7,930.4,879.7z M749.6,874.7h179.1c1.1-2.9,1.6-6,1.6-9.1c0-14.9-12.1-27.1-27-27.1H899
				c-1.4,0-2.5-1.1-2.5-2.5c0-26.9-21.9-48.8-48.8-48.8c-26.9,0-48.8,21.9-48.8,48.8c0,1.4-1.1,2.5-2.5,2.5H775
				c-14.9,0-27.1,12.1-27.1,27.1C748,868.7,748.5,871.8,749.6,874.7z"/>
		</g>
	</g>
	<g>
		<g>
			<path fill="#FFFFFF" d="M239.2,898.2c-74.6,0-135.4-60.7-135.4-135.4c0-69.3,51.9-127.1,120.7-134.6c1.2-0.1,2.3,0.6,2.7,1.7
				c0.4,1.1-0.1,2.3-1.1,2.9c-33.4,19.4-54.2,55.4-54.2,93.9c0,59.9,48.7,108.6,108.6,108.6c33.7,0,64.9-15.3,85.6-41.8
				c0.7-0.9,2-1.2,3.1-0.7c1.1,0.5,1.6,1.7,1.3,2.9C355.4,856.1,301.4,898.2,239.2,898.2z M213.7,634.9
				c-60.6,11.9-104.9,65-104.9,127.9c0,71.9,58.5,130.4,130.4,130.4c56.1,0,105.2-35.5,123.2-87.6c-21.4,22.3-50.6,34.9-81.9,34.9
				c-62.6,0-113.6-51-113.6-113.6C166.9,690.4,184.6,656.2,213.7,634.9z"/>
		</g>
		<g>
			<path fill="#FFFFFF" d="M361.4,746.2c-0.4,0-0.8-0.1-1.2-0.3l-21.2-11.1l-21.2,11.1c-0.8,0.4-1.9,0.4-2.6-0.2
				c-0.8-0.6-1.2-1.5-1-2.4l4-23.6L301.2,703c-0.7-0.7-0.9-1.7-0.6-2.6c0.3-0.9,1.1-1.6,2-1.7l23.7-3.4l10.6-21.4
				c0.8-1.7,3.7-1.7,4.5,0l10.6,21.4l23.7,3.4c0.9,0.1,1.7,0.8,2,1.7c0.3,0.9,0,1.9-0.6,2.6l-17.1,16.7l4,23.6
				c0.2,0.9-0.2,1.9-1,2.4C362.5,746,361.9,746.2,361.4,746.2z M339.1,729.4c0.4,0,0.8,0.1,1.2,0.3l17.8,9.4l-3.4-19.9
				c-0.1-0.8,0.1-1.6,0.7-2.2l14.4-14.1l-19.9-2.9c-0.8-0.1-1.5-0.6-1.9-1.4l-8.9-18.1l-8.9,18.1c-0.4,0.7-1.1,1.2-1.9,1.4
				l-19.9,2.9l14.4,14.1c0.6,0.6,0.9,1.4,0.7,2.2l-3.4,19.9l17.8-9.4C338.3,729.5,338.7,729.4,339.1,729.4z"/>
		</g>
		<g>
			<path fill="#FFFFFF" d="M256.2,801.2c-0.5,0-1-0.2-1.5-0.5c-0.8-0.6-1.2-1.5-1-2.5l3.2-18.6l-13.5-13.2c-0.7-0.7-0.9-1.7-0.6-2.6
				c0.3-0.9,1.1-1.6,2-1.7l18.7-2.7l8.4-16.9c0.8-1.7,3.7-1.7,4.5,0l8.4,16.9l18.7,2.7c0.9,0.1,1.7,0.8,2,1.7c0.3,0.9,0,1.9-0.6,2.6
				l-13.5,13.2l3.2,18.6c0.2,0.9-0.2,1.9-1,2.4c-0.8,0.6-1.8,0.6-2.6,0.2l-16.7-8.8l-16.7,8.8C257,801.1,256.6,801.2,256.2,801.2z
				 M274.1,786.8c0.4,0,0.8,0.1,1.2,0.3l13.4,7l-2.5-14.9c-0.1-0.8,0.1-1.6,0.7-2.2l10.8-10.5l-15-2.2c-0.8-0.1-1.5-0.6-1.9-1.4
				l-6.7-13.6l-6.7,13.6c-0.4,0.7-1.1,1.2-1.9,1.4l-15,2.2l10.8,10.5c0.6,0.6,0.9,1.4,0.7,2.2l-2.6,14.9l13.4-7
				C273.3,786.9,273.7,786.8,274.1,786.8z"/>
		</g>
		<g>
			<path fill="#FFFFFF" d="M240,707.5c-0.5,0-1-0.2-1.5-0.5c-0.8-0.6-1.2-1.5-1-2.5l2.2-12.6l-9.2-8.9c-0.7-0.7-0.9-1.7-0.6-2.6
				c0.3-0.9,1.1-1.6,2-1.7l12.7-1.8l5.7-11.5c0.4-0.9,1.3-1.4,2.2-1.4l0,0c1,0,1.8,0.5,2.2,1.4l5.7,11.5l12.7,1.8
				c0.9,0.1,1.7,0.8,2,1.7c0.3,0.9,0,1.9-0.6,2.6l-9.2,8.9l2.2,12.6c0.2,0.9-0.2,1.9-1,2.5c-0.8,0.6-1.8,0.6-2.6,0.2l-11.3-6
				l-11.3,6C240.8,707.4,240.4,707.5,240,707.5z M237.6,682.9l6.5,6.3c0.6,0.6,0.9,1.4,0.7,2.2l-1.5,8.9l8-4.2
				c0.7-0.4,1.6-0.4,2.3,0l8,4.2l-1.5-8.9c-0.1-0.8,0.1-1.6,0.7-2.2l6.5-6.3l-8.9-1.3c-0.8-0.1-1.5-0.6-1.9-1.4l-4-8.1l-4,8.1
				c-0.4,0.7-1.1,1.2-1.9,1.4L237.6,682.9z"/>
		</g>
	</g>
	<g>
		<g>
			<path fill="#FFFFFF" d="M434.4,525.8c-1.4,0-2.5-1.1-2.5-2.5v-94c0-1.4,1.1-2.5,2.5-2.5c1.4,0,2.5,1.1,2.5,2.5v94
				C436.9,524.7,435.8,525.8,434.4,525.8z"/>
		</g>
		<g>
			<path fill="#FFFFFF" d="M434.4,471.2c-0.6,0-1.3-0.2-1.8-0.7c-1-1-1-2.6,0-3.5l25.1-25.1c1-1,2.6-1,3.5,0c1,1,1,2.6,0,3.5
				l-25.1,25.1C435.7,470.9,435,471.2,434.4,471.2z"/>
		</g>
		<g>
			<path fill="#FFFFFF" d="M434.4,471.2c-0.6,0-1.3-0.2-1.8-0.7l-25.1-25.1c-1-1-1-2.6,0-3.5c1-1,2.6-1,3.5,0l25.1,25.1
				c1,1,1,2.6,0,3.5C435.7,470.9,435,471.2,434.4,471.2z"/>
		</g>
		<g>
			<path fill="#FFFFFF" d="M420.6,531.6c-0.6,0-1.3-0.2-1.8-0.7l-66.4-66.4c-1-1-1-2.6,0-3.5c1-1,2.6-1,3.5,0l66.4,66.4
				c1,1,1,2.6,0,3.5C421.8,531.3,421.2,531.6,420.6,531.6z"/>
		</g>
		<g>
			<path fill="#FFFFFF" d="M381.9,492.9c-1.4,0-2.5-1.1-2.5-2.5v-35.6c0-1.4,1.1-2.5,2.5-2.5s2.5,1.1,2.5,2.5v35.6
				C384.4,491.8,383.3,492.9,381.9,492.9z"/>
		</g>
		<g>
			<path fill="#FFFFFF" d="M381.9,492.9h-35.6c-1.4,0-2.5-1.1-2.5-2.5c0-1.4,1.1-2.5,2.5-2.5h35.6c1.4,0,2.5,1.1,2.5,2.5
				C384.4,491.8,383.3,492.9,381.9,492.9z"/>
		</g>
		<g>
			<path fill="#FFFFFF" d="M414.8,545.4h-94c-1.4,0-2.5-1.1-2.5-2.5s1.1-2.5,2.5-2.5h94c1.4,0,2.5,1.1,2.5,2.5
				S416.2,545.4,414.8,545.4z"/>
		</g>
		<g>
			<path fill="#FFFFFF" d="M360.2,545.4c-0.6,0-1.3-0.2-1.8-0.7l-25.1-25.1c-1-1-1-2.6,0-3.5c1-1,2.6-1,3.5,0l25.1,25.1
				c1,1,1,2.6,0,3.5C361.5,545.1,360.8,545.4,360.2,545.4z"/>
		</g>
		<g>
			<path fill="#FFFFFF" d="M335,570.5c-0.6,0-1.3-0.2-1.8-0.7c-1-1-1-2.6,0-3.5l25.1-25.1c1-1,2.6-1,3.5,0c1,1,1,2.6,0,3.5
				l-25.1,25.1C336.3,570.3,335.7,570.5,335,570.5z"/>
		</g>
		<g>
			<path fill="#FFFFFF" d="M354.1,625.6c-0.6,0-1.3-0.2-1.8-0.7c-1-1-1-2.6,0-3.5l66.4-66.4c1-1,2.6-1,3.5,0c1,1,1,2.6,0,3.5
				l-66.4,66.4C355.4,625.4,354.8,625.6,354.1,625.6z"/>
		</g>
		<g>
			<path fill="#FFFFFF" d="M381.9,597.8h-35.6c-1.4,0-2.5-1.1-2.5-2.5c0-1.4,1.1-2.5,2.5-2.5h35.6c1.4,0,2.5,1.1,2.5,2.5
				C384.4,596.7,383.3,597.8,381.9,597.8z"/>
		</g>
		<g>
			<path fill="#FFFFFF" d="M381.9,633.4c-1.4,0-2.5-1.1-2.5-2.5v-35.6c0-1.4,1.1-2.5,2.5-2.5s2.5,1.1,2.5,2.5v35.6
				C384.4,632.3,383.3,633.4,381.9,633.4z"/>
		</g>
		<g>
			<path fill="#FFFFFF" d="M434.4,658.9c-1.4,0-2.5-1.1-2.5-2.5v-94c0-1.4,1.1-2.5,2.5-2.5c1.4,0,2.5,1.1,2.5,2.5v94
				C436.9,657.8,435.8,658.9,434.4,658.9z"/>
		</g>
		<g>
			<path fill="#FFFFFF" d="M409.2,644.7c-0.6,0-1.3-0.2-1.8-0.7c-1-1-1-2.6,0-3.5l25.1-25.1c1-1,2.6-1,3.5,0c1,1,1,2.6,0,3.5
				L411,644C410.5,644.5,409.9,644.7,409.2,644.7z"/>
		</g>
		<g>
			<path fill="#FFFFFF" d="M459.5,644.7c-0.6,0-1.3-0.2-1.8-0.7l-25.1-25.1c-1-1-1-2.6,0-3.5c1-1,2.6-1,3.5,0l25.1,25.1
				c1,1,1,2.6,0,3.5C460.8,644.5,460.2,644.7,459.5,644.7z"/>
		</g>
		<g>
			<path fill="#FFFFFF" d="M514.6,625.6c-0.6,0-1.3-0.2-1.8-0.7l-66.4-66.4c-1-1-1-2.6,0-3.5c1-1,2.6-1,3.5,0l66.4,66.4
				c1,1,1,2.6,0,3.5C515.9,625.4,515.3,625.6,514.6,625.6z"/>
		</g>
		<g>
			<path fill="#FFFFFF" d="M486.9,633.4c-1.4,0-2.5-1.1-2.5-2.5v-35.6c0-1.4,1.1-2.5,2.5-2.5c1.4,0,2.5,1.1,2.5,2.5v35.6
				C489.4,632.3,488.2,633.4,486.9,633.4z"/>
		</g>
		<g>
			<path fill="#FFFFFF" d="M522.4,597.8h-35.6c-1.4,0-2.5-1.1-2.5-2.5c0-1.4,1.1-2.5,2.5-2.5h35.6c1.4,0,2.5,1.1,2.5,2.5
				C524.9,596.7,523.8,597.8,522.4,597.8z"/>
		</g>
		<g>
			<path fill="#FFFFFF" d="M547.9,545.4h-94c-1.4,0-2.5-1.1-2.5-2.5s1.1-2.5,2.5-2.5h94c1.4,0,2.5,1.1,2.5,2.5
				S549.3,545.4,547.9,545.4z"/>
		</g>
		<g>
			<path fill="#FFFFFF" d="M533.7,570.5c-0.6,0-1.3-0.2-1.8-0.7l-25.1-25.1c-1-1-1-2.6,0-3.5c1-1,2.6-1,3.5,0l25.1,25.1
				c1,1,1,2.6,0,3.5C535,570.3,534.4,570.5,533.7,570.5z"/>
		</g>
		<g>
			<path fill="#FFFFFF" d="M508.6,545.4c-0.6,0-1.3-0.2-1.8-0.7c-1-1-1-2.6,0-3.5L532,516c1-1,2.6-1,3.5,0c1,1,1,2.6,0,3.5
				l-25.1,25.1C509.9,545.1,509.2,545.4,508.6,545.4z"/>
		</g>
		<g>
			<path fill="#FFFFFF" d="M448.2,531.6c-0.6,0-1.3-0.2-1.8-0.7c-1-1-1-2.6,0-3.5l66.4-66.4c1-1,2.6-1,3.5,0c1,1,1,2.6,0,3.5
				L450,530.8C449.5,531.3,448.9,531.6,448.2,531.6z"/>
		</g>
		<g>
			<path fill="#FFFFFF" d="M522.4,492.9h-35.6c-1.4,0-2.5-1.1-2.5-2.5c0-1.4,1.1-2.5,2.5-2.5h35.6c1.4,0,2.5,1.1,2.5,2.5
				C524.9,491.8,523.8,492.9,522.4,492.9z"/>
		</g>
		<g>
			<path fill="#FFFFFF" d="M486.9,492.9c-1.4,0-2.5-1.1-2.5-2.5v-35.6c0-1.4,1.1-2.5,2.5-2.5c1.4,0,2.5,1.1,2.5,2.5v35.6
				C489.4,491.8,488.2,492.9,486.9,492.9z"/>
		</g>
	</g>
	<g>
		<path fill="#FFFFFF" d="M249.4,585.6c-10.9,0-19.8-8.9-19.8-19.8c0-9,7.3-16.3,16.4-16.3c7.5,0,13.6,6.1,13.6,13.6
			c0,1.4-1.1,2.5-2.5,2.5c-1.4,0-2.5-1.1-2.5-2.5c0-4.7-3.8-8.6-8.6-8.6c-6.3,0-11.3,5.1-11.3,11.3c0,8.2,6.6,14.8,14.8,14.8
			c10.5,0,19.1-8.6,19.1-19.1c0-13.5-11-24.5-24.5-24.5H87.7c-1.4,0-2.5-1.1-2.5-2.5c0-1.4,1.1-2.5,2.5-2.5H244
			c16.3,0,29.5,13.3,29.5,29.5C273.6,574.8,262.7,585.6,249.4,585.6z"/>
	</g>
	<g>
		<path fill="#FFFFFF" d="M229.9,510.4H87.7c-1.4,0-2.5-1.1-2.5-2.5c0-1.4,1.1-2.5,2.5-2.5h142.1c8.7,0,15.7-7.1,15.7-15.7
			c0-6.7-5.4-12.1-12.1-12.1c-5.1,0-9.2,4.1-9.2,9.2c0,1.4-1.1,2.5-2.5,2.5c-1.4,0-2.5-1.1-2.5-2.5c0-7.8,6.4-14.2,14.2-14.2
			c9.4,0,17.1,7.7,17.1,17.1C250.6,501.1,241.3,510.4,229.9,510.4z"/>
	</g>
	<g>
		<g>
			<path fill="#FFFFFF" d="M745.3,588.8c-24.5,0-44.4-19.9-44.4-44.4c0-7.5,1.9-14.9,5.5-21.4c0.5-0.9,1-1.7,1.5-2.5l35.3-59.2
				c0.9-1.5,3.4-1.5,4.3,0l35.4,59.2c0.4,0.7,0.9,1.5,1.4,2.3c3.7,6.6,5.5,14,5.5,21.5C789.7,568.8,769.8,588.8,745.3,588.8z
				 M745.3,467.5l-33.2,55.6c-0.5,0.7-0.9,1.4-1.3,2.1c-3.3,5.9-4.9,12.5-4.9,19.1c0,21.7,17.7,39.4,39.4,39.4
				c21.7,0,39.4-17.7,39.4-39.4c0-6.6-1.7-13.2-4.9-19c-0.5-0.8-0.9-1.5-1.3-2.2L745.3,467.5z"/>
		</g>
		<g>
			<path fill="#FFFFFF" d="M745.3,574.9c-1.4,0-2.5-1.1-2.5-2.5c0-1.4,1.1-2.5,2.5-2.5c14.4,0,26.1-11.7,26.1-26.1
				c0-1.4,1.1-2.5,2.5-2.5c1.4,0,2.5,1.1,2.5,2.5C776.3,561,762.4,574.9,745.3,574.9z"/>
		</g>
	</g>
	<g>
		<g>
			<path fill="#FFFFFF" d="M899.1,677.4c-27.8,0-50.5-22.6-50.5-50.5c0-8.5,2.2-16.9,6.2-24.3c0.6-1,1.1-1.9,1.7-2.8l40.4-67.7
				c0.9-1.5,3.4-1.5,4.3,0l40.5,67.7c0.5,0.8,1,1.7,1.5,2.6c4.2,7.5,6.3,15.9,6.3,24.4C949.6,654.8,927,677.4,899.1,677.4z
				 M899.1,538.4l-38.3,64.1c-0.5,0.8-1,1.6-1.5,2.4c-3.7,6.8-5.7,14.4-5.7,22c0,25.1,20.4,45.5,45.4,45.5
				c25.1,0,45.5-20.4,45.5-45.5c0-7.6-1.9-15.2-5.6-21.9c-0.5-0.9-1-1.7-1.5-2.5L899.1,538.4z"/>
		</g>
		<g>
			<path fill="#FFFFFF" d="M899.1,661.6c-1.4,0-2.5-1.1-2.5-2.5c0-1.4,1.1-2.5,2.5-2.5c16.6,0,30.2-13.5,30.2-30.2
				c0-1.4,1.1-2.5,2.5-2.5c1.4,0,2.5,1.1,2.5,2.5C934.3,645.8,918.5,661.6,899.1,661.6z"/>
		</g>
	</g>
	<g>
		<g>
			<path fill="#FFFFFF" d="M982.4,500.7c-21.8,0-39.6-17.7-39.6-39.6c0-6.6,1.7-13.2,4.9-19c0.4-0.8,0.9-1.5,1.3-2.2l31.2-52.3
				c0.9-1.5,3.4-1.5,4.3,0l31.3,52.3c0.4,0.6,0.8,1.3,1.2,2c3.3,5.9,4.9,12.5,4.9,19.2C1022,482.9,1004.2,500.7,982.4,500.7z
				 M982.4,393.8l-29.1,48.7c-0.4,0.6-0.8,1.2-1.1,1.8c-2.8,5.2-4.3,10.9-4.3,16.7c0,19,15.5,34.5,34.5,34.5s34.5-15.5,34.5-34.5
				c0-5.8-1.5-11.6-4.3-16.6c-0.4-0.7-0.8-1.3-1.1-1.9L982.4,393.8z"/>
		</g>
		<g>
			<path fill="#FFFFFF" d="M982.4,488.4c-1.4,0-2.5-1.1-2.5-2.5c0-1.4,1.1-2.5,2.5-2.5c12.5,0,22.7-10.2,22.7-22.7
				c0-1.4,1.1-2.5,2.5-2.5c1.4,0,2.5,1.1,2.5,2.5C1010.2,476,997.7,488.4,982.4,488.4z"/>
		</g>
	</g>
</g>
</svg>
